<?xml version="1.0" encoding="utf-8"?>
<!-- Generator: Adobe Illustrator 25.2.0, SVG Export Plug-In . SVG Version: 6.00 Build 0)  -->
<svg version="1.1" id="Layer_1" xmlns="http://www.w3.org/2000/svg" xmlns:xlink="http://www.w3.org/1999/xlink" x="0px" y="0px"
	 viewBox="0 0 1080 1080" style="enable-background:new 0 0 1080 1080;" xml:space="preserve">
<style type="text/css">
	.st0{fill:#CE7C2F;}
	.st1{fill:#2E3192;}
	.st2{opacity:0.2;fill:#603913;}
	.st3{fill:#FFFFFF;}
	.st4{fill:#872323;}
	.st5{fill:#F17092;}
	.st6{fill:#EEABCC;}
	.st7{fill:#BE8BA7;}
	.st8{fill:#3B439B;}
	.st9{fill:#9FA1C0;}
</style>
<g>
	
		<ellipse transform="matrix(0.5516 -0.8341 0.8341 0.5516 56.5713 737.4646)" class="st0" cx="714.16" cy="316.12" rx="27.49" ry="34.65"/>
	<path class="st0" d="M602.65,457.42l-19.76-18.08c-4.83-4.42-5.16-11.91-0.74-16.74l106.67-116.57c4.42-4.83,11.91-5.16,16.74-0.74
		l19.76,18.08c4.83,4.42,5.16,11.91,0.74,16.74L619.39,456.67C614.97,461.5,607.48,461.83,602.65,457.42z"/>
</g>
<g>
	<rect x="390.89" y="622.47" class="st1" width="90.54" height="417.05"/>
	<rect x="454.17" y="229.74" class="st0" width="72.4" height="66.44"/>
	<path class="st2" d="M454.01,247.57c11.3,8.74,24.02,13.7,37.46,13.7h0c12.45,0,24.28-4.26,34.94-11.84v-43.62h-72.4V247.57z"/>
	<ellipse class="st0" cx="490.28" cy="134.58" rx="87.12" ry="113.75"/>
	<ellipse cx="456.48" cy="124.18" rx="14.7" ry="20.93"/>
	<ellipse cx="520.57" cy="124" rx="14.7" ry="20.93"/>
	<circle class="st3" cx="453.88" cy="116.46" r="6.15"/>
	<circle class="st3" cx="518.52" cy="117.2" r="6.15"/>
	<path class="st4" d="M560.88,162.58c0,38.66-31.34,70-70,70s-70-31.34-70-70"/>
	<path class="st3" d="M426.32,189.55h129.01c3.54-8.37,5.49-17.57,5.49-27.23h-140C420.83,171.98,422.78,181.18,426.32,189.55z"/>
	<path class="st5" d="M539.28,212.83c-10.44-5.35-28.47-8.89-48.98-8.89c-20.15,0-37.92,3.41-48.44,8.61
		c12.61,12.3,29.85,19.89,48.86,19.89C509.58,232.44,526.69,224.96,539.28,212.83z"/>
	<ellipse class="st0" cx="579.86" cy="137.74" rx="14.85" ry="25.09"/>
	<ellipse class="st0" cx="396.73" cy="139.23" rx="14.85" ry="25.09"/>
	<path class="st0" d="M610.03,461.19h-26.78c-6.54,0-11.85-5.31-11.85-11.85v-81.57c0-6.55,5.31-11.85,11.85-11.85h26.78
		c6.54,0,11.85,5.31,11.85,11.85v81.57C621.88,455.89,616.57,461.19,610.03,461.19z"/>
	<path class="st6" d="M621.09,373.21H355.51v-83.19c0-13.06,10.59-23.65,23.65-23.65h221.79c11.13,0,20.15,9.02,20.15,20.15V373.21z
		"/>
	<path class="st7" d="M573.52,623.5H403.08V301.81c0-15.07,12.21-27.28,27.28-27.28h118.32c13.72,0,24.84,11.12,24.84,24.84V623.5z"
		/>
	<rect x="356.1" y="372.77" class="st0" width="50.48" height="264.06"/>
	<ellipse class="st0" cx="379.77" cy="641.44" rx="34.65" ry="27.49"/>
	<rect x="481.43" y="623.47" class="st8" width="90.54" height="416.1"/>
	<path class="st6" d="M489.82,19.24L489.82,19.24c-39.61,0-73.38,25.56-84.66,60.52c-2.58,8.04-3.97,16.58-3.97,25.42v33.57h4.18
		c-0.12-1.21-0.19-2.44-0.19-3.68c0-14.61,8.26-27.32,20.47-34.05V76h127.42v30.46c12.47,6.02,21.26,18.1,22.28,32.29h3.15v-33.44
		C578.49,57.97,538.59,19.24,489.82,19.24z"/>
	<g>
		<path class="st9" d="M372.27,1053.36c0-31.19,25.29-56.48,56.48-56.48s56.48,25.29,56.48,56.48"/>
		<path class="st9" d="M480.1,1053.64c0-31.19,25.29-56.48,56.48-56.48c31.19,0,56.48,25.29,56.48,56.48"/>
	</g>
</g>
</svg>
