<?xml version="1.0" encoding="utf-8"?>
<!-- Generator: Adobe Illustrator 25.2.0, SVG Export Plug-In . SVG Version: 6.00 Build 0)  -->
<svg version="1.1" id="Layer_1" xmlns="http://www.w3.org/2000/svg" xmlns:xlink="http://www.w3.org/1999/xlink" x="0px" y="0px"
	 viewBox="0 0 1080 1080" style="enable-background:new 0 0 1080 1080;" xml:space="preserve">
<style type="text/css">
	.st0{fill:#CE7C2F;}
	.st1{fill:#FFFFFF;}
	.st2{fill:#872323;}
	.st3{fill:#F07091;}
	.st4{fill:#EEAACC;}
</style>
<g>
	<ellipse class="st0" cx="548.9" cy="543.6" rx="389.7" ry="508.9"/>
	<ellipse cx="374" cy="458.1" rx="65.8" ry="93.7"/>
	<ellipse cx="606.3" cy="458.3" rx="65.8" ry="93.7"/>
	<circle class="st1" cx="351.2" cy="406.6" r="27.5"/>
	<circle class="st1" cx="579" cy="417.2" r="27.5"/>
	<path class="st2" d="M864.7,668.8c0,173-140.2,313.2-313.2,313.2S238.4,841.8,238.4,668.8"/>
	<path class="st1" d="M262.7,789.5h577.2c15.8-37.4,24.6-78.6,24.6-121.8H238.1C238.1,710.9,246.9,752,262.7,789.5z"/>
	<path class="st3" d="M768.1,893.6c-46.7-23.9-127.4-39.8-219.1-39.8c-90.2,0-169.6,15.3-216.7,38.5c56.4,55,133.5,89,218.6,89
		C635.2,981.4,711.8,947.9,768.1,893.6z"/>
	<ellipse class="st0" cx="949.6" cy="557.7" rx="66.5" ry="112.3"/>
	<ellipse class="st0" cx="130.4" cy="564.3" rx="66.5" ry="112.3"/>
	<path class="st4" d="M546.8,27.5L546.8,27.5c-177.2,0-328.3,114.3-378.8,270.8c-11.5,36-17.8,74.2-17.8,113.7v150.2H169
		c-0.5-5.4-0.9-10.9-0.9-16.5c0-65.4,36.9-122.2,91.6-152.4V281.5h570.1v136.3c55.8,26.9,95.1,81,99.7,144.5h14.1V412.6
		C943.5,200.8,765,27.5,546.8,27.5z"/>
</g>
</svg>
